<svg width="192" height="45" viewBox="0 0 192 45" fill="none" xmlns="http://www.w3.org/2000/svg">
<path fill-rule="evenodd" clip-rule="evenodd" d="M32.8001 14.6187L32.7609 14.6907H24.6393L24.6001 14.6187L28.6588 7.34649H28.7415L32.8001 14.6187Z" fill="#15181B"/>
<path fill-rule="evenodd" clip-rule="evenodd" d="M36.8608 7.34649L32.8001 14.6187L28.7415 7.34649H36.8608Z" fill="#15181B"/>
<path fill-rule="evenodd" clip-rule="evenodd" d="M40.9608 14.6907L36.9 21.9651L32.8391 14.6907H40.9608Z" fill="#15181B"/>
<path fill-rule="evenodd" clip-rule="evenodd" d="M41 29.3093L40.9608 29.3813H32.8392L32.8 29.3093L36.8608 22.0349H36.9392L41 29.3093Z" fill="#15181B"/>
<path fill-rule="evenodd" clip-rule="evenodd" d="M36.9001 36.6558L36.8609 36.7256H28.7414L28.7001 36.6535L32.7609 29.3814L32.8392 29.3813L36.9001 36.6558Z" fill="#15181B"/>
<path fill-rule="evenodd" clip-rule="evenodd" d="M36.9 21.9651L36.8608 22.0349L28.7393 22.0349L28.7001 21.9651L32.7609 14.6907L32.8391 14.6907L36.9 21.9651Z" fill="#15181B"/>
<path fill-rule="evenodd" clip-rule="evenodd" d="M36.8608 22.0349L32.8 29.3093L28.7393 22.0349L36.8608 22.0349Z" fill="#15181B"/>
<path fill-rule="evenodd" clip-rule="evenodd" d="M20.4999 7.27444L20.4586 7.34646L16.3999 14.6186L16.3608 14.6907H8.23914L12.3 21.9651L12.2608 22.0349L8.19997 29.3093L8.15862 29.3813H0.0391718L0 29.3093L4.06081 22.0349H4.13916L4.09999 21.9651L0.0391718 14.6907H8.1608L8.19997 14.6209L4.13916 7.34646H12.3391L12.3 7.27444L16.3608 0H16.4391L20.4999 7.27444Z" fill="#15181B"/>
<path fill-rule="evenodd" clip-rule="evenodd" d="M20.4999 36.6535L20.4585 36.7256L16.3999 44L12.3391 36.7256L12.2999 36.6535L12.2586 36.7256H4.13912L4.09995 36.6535L8.15862 29.3813L16.4391 29.3814L20.4999 36.6535Z" fill="#15181B"/>
<path fill-rule="evenodd" clip-rule="evenodd" d="M28.6588 7.34649L24.6001 14.6187L20.5393 7.34649H28.6588Z" fill="#15181B"/>
<path fill-rule="evenodd" clip-rule="evenodd" d="M28.7002 7.27444L28.6588 7.34649H20.5393L20.5002 7.27444L24.561 0H24.6393L28.7002 7.27444Z" fill="#15181B"/>
<path fill-rule="evenodd" clip-rule="evenodd" d="M28.7001 36.6535L28.661 36.7256H20.5394L20.5002 36.6535L24.5588 29.3814H24.6415L28.7001 36.6535Z" fill="#15181B"/>
<path fill-rule="evenodd" clip-rule="evenodd" d="M28.661 36.7256L24.6001 44L20.5394 36.7256H28.661Z" fill="#15181B"/>
<path fill-rule="evenodd" clip-rule="evenodd" d="M32.7609 29.3814L28.7001 36.6535L24.6415 29.3814H32.7609Z" fill="#15181B"/>
<path d="M65.043 19L61.2441 4.68359H63.1875L65.3652 14.0684C65.5996 15.0514 65.8014 16.028 65.9707 16.998C66.3353 15.4681 66.5501 14.5859 66.6152 14.3516L69.3398 4.68359H71.625L73.6758 11.9297C74.1901 13.7266 74.5612 15.416 74.7891 16.998C74.9714 16.0931 75.209 15.0547 75.502 13.8828L77.748 4.68359H79.6523L75.7266 19H73.9004L70.8828 8.0918C70.6289 7.18034 70.4792 6.62044 70.4336 6.41211C70.2839 7.06966 70.1439 7.62956 70.0137 8.0918L66.9766 19H65.043ZM80.1797 13.8145C80.1797 11.8939 80.7135 10.4714 81.7812 9.54688C82.6732 8.77865 83.7604 8.39453 85.043 8.39453C86.4688 8.39453 87.6341 8.86328 88.5391 9.80078C89.444 10.7318 89.8965 12.0208 89.8965 13.668C89.8965 15.0026 89.6947 16.054 89.291 16.8223C88.8939 17.584 88.3112 18.1764 87.543 18.5996C86.7812 19.0228 85.9479 19.2344 85.043 19.2344C83.5911 19.2344 82.416 18.7689 81.5176 17.8379C80.6257 16.9069 80.1797 15.5658 80.1797 13.8145ZM81.9863 13.8145C81.9863 15.1426 82.276 16.1387 82.8555 16.8027C83.4349 17.4603 84.1641 17.7891 85.043 17.7891C85.9154 17.7891 86.6413 17.457 87.2207 16.793C87.8001 16.1289 88.0898 15.1165 88.0898 13.7559C88.0898 12.4733 87.7969 11.5033 87.2109 10.8457C86.6315 10.1816 85.9089 9.84961 85.043 9.84961C84.1641 9.84961 83.4349 10.1784 82.8555 10.8359C82.276 11.4935 81.9863 12.4863 81.9863 13.8145ZM91.9473 19V8.62891H93.5293V10.2012C93.9329 9.46549 94.304 8.98047 94.6426 8.74609C94.9876 8.51172 95.3652 8.39453 95.7754 8.39453C96.3678 8.39453 96.9701 8.58333 97.582 8.96094L96.9766 10.5918C96.5469 10.3379 96.1172 10.2109 95.6875 10.2109C95.3034 10.2109 94.9583 10.3281 94.6523 10.5625C94.3464 10.7904 94.1283 11.1094 93.998 11.5195C93.8027 12.1445 93.7051 12.8281 93.7051 13.5703V19H91.9473ZM102.465 17.4277L102.719 18.9805C102.224 19.0846 101.781 19.1367 101.391 19.1367C100.753 19.1367 100.258 19.0358 99.9062 18.834C99.5547 18.6322 99.3073 18.3685 99.1641 18.043C99.0208 17.7109 98.9492 17.0176 98.9492 15.9629V9.99609H97.6602V8.62891H98.9492V6.06055L100.697 5.00586V8.62891H102.465V9.99609H100.697V16.0605C100.697 16.5618 100.727 16.8841 100.785 17.0273C100.85 17.1706 100.951 17.2845 101.088 17.3691C101.231 17.4538 101.433 17.4961 101.693 17.4961C101.889 17.4961 102.146 17.4733 102.465 17.4277ZM111.293 15.6602L113.109 15.8848C112.823 16.946 112.292 17.7695 111.518 18.3555C110.743 18.9414 109.753 19.2344 108.549 19.2344C107.032 19.2344 105.827 18.7689 104.936 17.8379C104.05 16.9004 103.607 15.5885 103.607 13.9023C103.607 12.1576 104.057 10.8034 104.955 9.83984C105.854 8.8763 107.019 8.39453 108.451 8.39453C109.838 8.39453 110.971 8.86654 111.85 9.81055C112.729 10.7546 113.168 12.0827 113.168 13.7949C113.168 13.8991 113.165 14.0553 113.158 14.2637H105.424C105.489 15.403 105.811 16.2754 106.391 16.8809C106.97 17.4863 107.693 17.7891 108.559 17.7891C109.203 17.7891 109.753 17.6198 110.209 17.2812C110.665 16.9427 111.026 16.4023 111.293 15.6602ZM105.521 12.8184H111.312C111.234 11.946 111.013 11.2917 110.648 10.8555C110.089 10.1784 109.363 9.83984 108.471 9.83984C107.663 9.83984 106.983 10.11 106.43 10.6504C105.883 11.1908 105.58 11.9134 105.521 12.8184ZM114.154 19L117.943 13.6094L114.438 8.62891H116.635L118.227 11.0605C118.526 11.5228 118.767 11.9102 118.949 12.2227C119.236 11.793 119.499 11.4121 119.74 11.0801L121.488 8.62891H123.588L120.004 13.5117L123.861 19H121.703L119.574 15.7773L119.008 14.9082L116.283 19H114.154ZM62.543 39V24.6836H67.4746C68.5879 24.6836 69.4375 24.752 70.0234 24.8887C70.8438 25.0775 71.5436 25.4193 72.123 25.9141C72.8783 26.5521 73.4414 27.3691 73.8125 28.3652C74.1901 29.3548 74.3789 30.4876 74.3789 31.7637C74.3789 32.8509 74.252 33.8145 73.998 34.6543C73.7441 35.4941 73.4186 36.1908 73.0215 36.7441C72.6243 37.291 72.1882 37.724 71.7129 38.043C71.2441 38.3555 70.6745 38.5931 70.0039 38.7559C69.3398 38.9186 68.5749 39 67.709 39H62.543ZM64.4375 37.3105H67.4941C68.4382 37.3105 69.1771 37.2227 69.7109 37.0469C70.2513 36.8711 70.681 36.6237 71 36.3047C71.4492 35.8555 71.7975 35.2533 72.0449 34.498C72.2988 33.7363 72.4258 32.8151 72.4258 31.7344C72.4258 30.237 72.1784 29.0879 71.6836 28.2871C71.1953 27.4798 70.5996 26.9395 69.8965 26.666C69.3887 26.4707 68.5716 26.373 67.4453 26.373H64.4375V37.3105ZM83.8711 35.6602L85.6875 35.8848C85.401 36.946 84.8704 37.7695 84.0957 38.3555C83.321 38.9414 82.3314 39.2344 81.127 39.2344C79.61 39.2344 78.4056 38.7689 77.5137 37.8379C76.6283 36.9004 76.1855 35.5885 76.1855 33.9023C76.1855 32.1576 76.6348 30.8034 77.5332 29.8398C78.4316 28.8763 79.597 28.3945 81.0293 28.3945C82.416 28.3945 83.5488 28.8665 84.4277 29.8105C85.3066 30.7546 85.7461 32.0827 85.7461 33.7949C85.7461 33.8991 85.7428 34.0553 85.7363 34.2637H78.002C78.0671 35.403 78.3893 36.2754 78.9688 36.8809C79.5482 37.4863 80.2708 37.7891 81.1367 37.7891C81.7812 37.7891 82.3314 37.6198 82.7871 37.2812C83.2428 36.9427 83.6042 36.4023 83.8711 35.6602ZM78.0996 32.8184H83.8906C83.8125 31.946 83.5911 31.2917 83.2266 30.8555C82.6667 30.1784 81.9408 29.8398 81.0488 29.8398C80.2415 29.8398 79.5612 30.11 79.0078 30.6504C78.4609 31.1908 78.1582 31.9134 78.0996 32.8184ZM90.7852 39L86.8398 28.6289H88.6953L90.9219 34.8398C91.1628 35.5104 91.3841 36.207 91.5859 36.9297C91.7422 36.3828 91.9603 35.7253 92.2402 34.957L94.5449 28.6289H96.3516L92.4258 39H90.7852ZM105.004 35.6602L106.82 35.8848C106.534 36.946 106.003 37.7695 105.229 38.3555C104.454 38.9414 103.464 39.2344 102.26 39.2344C100.743 39.2344 99.5384 38.7689 98.6465 37.8379C97.7611 36.9004 97.3184 35.5885 97.3184 33.9023C97.3184 32.1576 97.7676 30.8034 98.666 29.8398C99.5645 28.8763 100.73 28.3945 102.162 28.3945C103.549 28.3945 104.682 28.8665 105.561 29.8105C106.439 30.7546 106.879 32.0827 106.879 33.7949C106.879 33.8991 106.876 34.0553 106.869 34.2637H99.1348C99.1999 35.403 99.5221 36.2754 100.102 36.8809C100.681 37.4863 101.404 37.7891 102.27 37.7891C102.914 37.7891 103.464 37.6198 103.92 37.2812C104.376 36.9427 104.737 36.4023 105.004 35.6602ZM99.2324 32.8184H105.023C104.945 31.946 104.724 31.2917 104.359 30.8555C103.799 30.1784 103.074 29.8398 102.182 29.8398C101.374 29.8398 100.694 30.11 100.141 30.6504C99.5938 31.1908 99.291 31.9134 99.2324 32.8184ZM108.998 39V24.6836H110.756V39H108.998ZM112.836 33.8145C112.836 31.8939 113.37 30.4714 114.438 29.5469C115.329 28.7786 116.417 28.3945 117.699 28.3945C119.125 28.3945 120.29 28.8633 121.195 29.8008C122.1 30.7318 122.553 32.0208 122.553 33.668C122.553 35.0026 122.351 36.054 121.947 36.8223C121.55 37.584 120.967 38.1764 120.199 38.5996C119.438 39.0228 118.604 39.2344 117.699 39.2344C116.247 39.2344 115.072 38.7689 114.174 37.8379C113.282 36.9069 112.836 35.5658 112.836 33.8145ZM114.643 33.8145C114.643 35.1426 114.932 36.1387 115.512 36.8027C116.091 37.4603 116.82 37.7891 117.699 37.7891C118.572 37.7891 119.298 37.457 119.877 36.793C120.456 36.1289 120.746 35.1165 120.746 33.7559C120.746 32.4733 120.453 31.5033 119.867 30.8457C119.288 30.1816 118.565 29.8496 117.699 29.8496C116.82 29.8496 116.091 30.1784 115.512 30.8359C114.932 31.4935 114.643 32.4863 114.643 33.8145ZM124.623 42.9746V28.6289H126.225V29.9766C126.602 29.4492 127.029 29.0553 127.504 28.7949C127.979 28.528 128.555 28.3945 129.232 28.3945C130.118 28.3945 130.899 28.6224 131.576 29.0781C132.253 29.5339 132.764 30.1784 133.109 31.0117C133.454 31.8385 133.627 32.7467 133.627 33.7363C133.627 34.7975 133.435 35.7546 133.051 36.6074C132.673 37.4538 132.12 38.1048 131.391 38.5605C130.668 39.0098 129.906 39.2344 129.105 39.2344C128.52 39.2344 127.992 39.1107 127.523 38.8633C127.061 38.6159 126.68 38.3034 126.381 37.9258V42.9746H124.623ZM126.215 33.873C126.215 35.2077 126.485 36.194 127.025 36.832C127.566 37.4701 128.22 37.7891 128.988 37.7891C129.77 37.7891 130.437 37.4603 130.99 36.8027C131.55 36.1387 131.83 35.1133 131.83 33.7266C131.83 32.4049 131.557 31.4154 131.01 30.7578C130.469 30.1003 129.822 29.7715 129.066 29.7715C128.318 29.7715 127.654 30.123 127.074 30.8262C126.501 31.5228 126.215 32.5384 126.215 33.873ZM135.756 39V28.6289H137.328V30.084C137.654 29.5762 138.087 29.1693 138.627 28.8633C139.167 28.5508 139.783 28.3945 140.473 28.3945C141.241 28.3945 141.869 28.554 142.357 28.873C142.852 29.1921 143.201 29.638 143.402 30.2109C144.223 29 145.29 28.3945 146.605 28.3945C147.634 28.3945 148.425 28.681 148.979 29.2539C149.532 29.8203 149.809 30.696 149.809 31.8809V39H148.061V32.4668C148.061 31.7637 148.002 31.2591 147.885 30.9531C147.774 30.6406 147.569 30.39 147.27 30.2012C146.97 30.0124 146.618 29.918 146.215 29.918C145.486 29.918 144.88 30.1621 144.398 30.6504C143.917 31.1322 143.676 31.9069 143.676 32.9746V39H141.918V32.2617C141.918 31.4805 141.775 30.8945 141.488 30.5039C141.202 30.1133 140.733 29.918 140.082 29.918C139.587 29.918 139.128 30.0482 138.705 30.3086C138.288 30.569 137.986 30.9499 137.797 31.4512C137.608 31.9525 137.514 32.6751 137.514 33.6191V39H135.756ZM159.516 35.6602L161.332 35.8848C161.046 36.946 160.515 37.7695 159.74 38.3555C158.965 38.9414 157.976 39.2344 156.771 39.2344C155.255 39.2344 154.05 38.7689 153.158 37.8379C152.273 36.9004 151.83 35.5885 151.83 33.9023C151.83 32.1576 152.279 30.8034 153.178 29.8398C154.076 28.8763 155.242 28.3945 156.674 28.3945C158.061 28.3945 159.193 28.8665 160.072 29.8105C160.951 30.7546 161.391 32.0827 161.391 33.7949C161.391 33.8991 161.387 34.0553 161.381 34.2637H153.646C153.712 35.403 154.034 36.2754 154.613 36.8809C155.193 37.4863 155.915 37.7891 156.781 37.7891C157.426 37.7891 157.976 37.6198 158.432 37.2812C158.887 36.9427 159.249 36.4023 159.516 35.6602ZM153.744 32.8184H159.535C159.457 31.946 159.236 31.2917 158.871 30.8555C158.311 30.1784 157.585 29.8398 156.693 29.8398C155.886 29.8398 155.206 30.11 154.652 30.6504C154.105 31.1908 153.803 31.9134 153.744 32.8184ZM163.549 39V28.6289H165.131V30.1035C165.893 28.9642 166.993 28.3945 168.432 28.3945C169.057 28.3945 169.63 28.5085 170.15 28.7363C170.678 28.9577 171.072 29.2507 171.332 29.6152C171.592 29.9798 171.775 30.4128 171.879 30.9141C171.944 31.2396 171.977 31.8092 171.977 32.623V39H170.219V32.6914C170.219 31.9753 170.15 31.4414 170.014 31.0898C169.877 30.7318 169.633 30.4486 169.281 30.2402C168.936 30.0254 168.529 29.918 168.061 29.918C167.312 29.918 166.664 30.1556 166.117 30.6309C165.577 31.1061 165.307 32.0078 165.307 33.3359V39H163.549ZM178.52 37.4277L178.773 38.9805C178.279 39.0846 177.836 39.1367 177.445 39.1367C176.807 39.1367 176.312 39.0358 175.961 38.834C175.609 38.6322 175.362 38.3685 175.219 38.043C175.076 37.7109 175.004 37.0176 175.004 35.9629V29.9961H173.715V28.6289H175.004V26.0605L176.752 25.0059V28.6289H178.52V29.9961H176.752V36.0605C176.752 36.5618 176.781 36.8841 176.84 37.0273C176.905 37.1706 177.006 37.2845 177.143 37.3691C177.286 37.4538 177.488 37.4961 177.748 37.4961C177.943 37.4961 178.201 37.4733 178.52 37.4277Z" fill="#15181B"/>
</svg>
