<svg width="177" height="46" viewBox="0 0 177 46" fill="none" xmlns="http://www.w3.org/2000/svg">
<path fill-rule="evenodd" clip-rule="evenodd" d="M32.8001 14.6187L32.7609 14.6907H24.6393L24.6001 14.6187L28.6588 7.34649H28.7415L32.8001 14.6187Z" fill="#15181B"/>
<path fill-rule="evenodd" clip-rule="evenodd" d="M36.8608 7.34649L32.8001 14.6187L28.7415 7.34649H36.8608Z" fill="#15181B"/>
<path fill-rule="evenodd" clip-rule="evenodd" d="M40.9608 14.6907L36.9 21.9651L32.8391 14.6907H40.9608Z" fill="#15181B"/>
<path fill-rule="evenodd" clip-rule="evenodd" d="M41 29.3093L40.9608 29.3813H32.8392L32.8 29.3093L36.8608 22.0349H36.9392L41 29.3093Z" fill="#15181B"/>
<path fill-rule="evenodd" clip-rule="evenodd" d="M36.9 36.6558L36.8609 36.7256H28.7414L28.7001 36.6535L32.7609 29.3814L32.8392 29.3813L36.9 36.6558Z" fill="#15181B"/>
<path fill-rule="evenodd" clip-rule="evenodd" d="M36.9 21.9651L36.8608 22.0349L28.7393 22.0349L28.7001 21.9651L32.7609 14.6907L32.8391 14.6907L36.9 21.9651Z" fill="#15181B"/>
<path fill-rule="evenodd" clip-rule="evenodd" d="M36.8608 22.0349L32.8 29.3093L28.7393 22.0349L36.8608 22.0349Z" fill="#15181B"/>
<path fill-rule="evenodd" clip-rule="evenodd" d="M20.4999 7.27444L20.4586 7.34646L16.3999 14.6186L16.3608 14.6907H8.23914L12.3 21.9651L12.2608 22.0349L8.19997 29.3093L8.15862 29.3813H0.0391718L0 29.3093L4.06081 22.0349H4.13916L4.09998 21.9651L0.0391718 14.6907H8.1608L8.19997 14.6209L4.13916 7.34646H12.3391L12.3 7.27444L16.3608 0H16.4391L20.4999 7.27444Z" fill="#15181B"/>
<path fill-rule="evenodd" clip-rule="evenodd" d="M20.4999 36.6535L20.4585 36.7256L16.3999 44L12.3391 36.7256L12.2999 36.6535L12.2586 36.7256H4.13912L4.09995 36.6535L8.15862 29.3813L16.4391 29.3814L20.4999 36.6535Z" fill="#15181B"/>
<path fill-rule="evenodd" clip-rule="evenodd" d="M28.6588 7.34649L24.6001 14.6187L20.5393 7.34649H28.6588Z" fill="#15181B"/>
<path fill-rule="evenodd" clip-rule="evenodd" d="M28.7002 7.27444L28.6588 7.34649H20.5393L20.5002 7.27444L24.561 0H24.6393L28.7002 7.27444Z" fill="#15181B"/>
<path fill-rule="evenodd" clip-rule="evenodd" d="M28.7001 36.6535L28.661 36.7256H20.5394L20.5002 36.6535L24.5588 29.3814H24.6415L28.7001 36.6535Z" fill="#15181B"/>
<path fill-rule="evenodd" clip-rule="evenodd" d="M28.661 36.7256L24.6001 44L20.5394 36.7256H28.661Z" fill="#15181B"/>
<path fill-rule="evenodd" clip-rule="evenodd" d="M32.7609 29.3814L28.7001 36.6535L24.6415 29.3814H32.7609Z" fill="#15181B"/>
<path d="M62.16 9.02H64.38C64.52 8 65.26 7.04 66.86 7.04C68.42 7.04 69.24 7.88 69.24 9.14C69.24 10.7 67.98 11.3 65.92 11.32H65.38V13.2H65.9C68.28 13.2 69.52 13.86 69.52 15.78C69.52 17.14 68.68 18.18 66.98 18.18C65.26 18.18 64.26 17.14 64.16 15.78H61.96C62.1 18.64 64.24 20.08 67 20.08C70.04 20.08 71.68 18.32 71.68 16C71.68 13.98 70.7 12.72 69.18 12.26V12.18C70.32 11.8 71.42 10.62 71.42 8.88C71.42 6.76 69.84 5.08 66.94 5.08C64.28 5.08 62.32 6.5 62.16 9.02ZM84.015 8.8C83.775 6.86 82.355 5.06 79.515 5.06C75.875 5.06 74.355 7.82 74.355 12.38C74.355 17.02 75.455 20 79.695 20C82.815 20 84.475 17.9 84.475 15.14C84.475 12.1 82.615 10.34 79.995 10.34C78.475 10.34 77.035 10.98 76.315 12.18C76.375 8.36 77.435 6.96 79.495 6.96C80.935 6.96 81.635 7.62 81.915 8.8H84.015ZM79.495 12.26C81.415 12.26 82.295 13.5 82.295 15.24C82.295 16.96 81.255 18.1 79.575 18.1C77.635 18.1 76.575 16.9 76.575 15.1C76.575 13.16 77.995 12.26 79.495 12.26ZM86.907 12.52C86.907 16.76 88.027 19.96 92.107 19.96C96.187 19.96 97.307 16.76 97.307 12.52C97.307 8.36 96.187 5.16 92.107 5.16C88.027 5.16 86.907 8.36 86.907 12.52ZM95.067 12.52C95.067 15.38 94.767 17.88 92.107 17.88C89.447 17.88 89.147 15.38 89.147 12.52C89.147 9.8 89.447 7.24 92.107 7.24C94.767 7.24 95.067 9.8 95.067 12.52ZM71.88 36.06C71.88 30.98 64.52 32.94 64.52 29.8C64.52 28.46 65.54 27.82 66.86 27.86C68.3 27.9 69.12 28.76 69.2 29.7H71.72C71.52 27.32 69.64 25.92 66.98 25.92C64.14 25.92 62.2 27.44 62.2 29.88C62.2 35 69.58 32.82 69.58 36.18C69.58 37.36 68.68 38.22 67.08 38.22C65.5 38.22 64.7 37.3 64.6 36.16H62.16C62.16 38.62 64.3 40.14 67.08 40.14C70.18 40.14 71.88 38.14 71.88 36.06ZM76.8503 30.6V28.98H74.5703V45.24H76.8503V38.4C77.5703 39.26 78.8703 40.18 80.6903 40.18C83.5903 40.18 85.8703 37.84 85.8703 34.44C85.8703 31.04 83.5903 28.8 80.6903 28.8C78.8903 28.8 77.5503 29.68 76.8503 30.6ZM83.5503 34.44C83.5503 36.82 81.9103 38.2 80.1903 38.2C78.4903 38.2 76.8503 36.86 76.8503 34.48C76.8503 32.12 78.4903 30.78 80.1903 30.78C81.9103 30.78 83.5503 32.06 83.5503 34.44ZM90.405 34.2C90.405 31.86 91.445 31.16 93.125 31.16H93.705V28.8C92.145 28.8 91.045 29.48 90.405 30.58V28.98H88.125V40H90.405V34.2ZM100.441 30.72C102.141 30.72 103.481 31.8 103.521 33.5H97.4208C97.6608 31.76 98.9008 30.72 100.441 30.72ZM105.601 36.72H103.141C102.721 37.58 101.941 38.26 100.541 38.26C98.8608 38.26 97.5608 37.16 97.4008 35.34H105.821C105.881 34.96 105.901 34.6 105.901 34.22C105.901 30.98 103.681 28.8 100.541 28.8C97.2808 28.8 95.0408 31.02 95.0408 34.48C95.0408 37.94 97.3808 40.18 100.541 40.18C103.241 40.18 104.981 38.64 105.601 36.72ZM115.965 40H118.225V33.5C118.225 30.42 116.285 28.8 113.705 28.8C112.385 28.8 111.165 29.34 110.425 30.24V28.98H108.145V40H110.425V33.84C110.425 31.82 111.525 30.78 113.205 30.78C114.865 30.78 115.965 31.82 115.965 33.84V40ZM120.373 34.44C120.373 37.84 122.673 40.18 125.573 40.18C127.373 40.18 128.693 39.34 129.393 38.34V40H131.693V25.2H129.393V30.52C128.553 29.48 127.033 28.8 125.593 28.8C122.673 28.8 120.373 31.04 120.373 34.44ZM129.393 34.48C129.393 36.86 127.773 38.2 126.053 38.2C124.353 38.2 122.713 36.82 122.713 34.44C122.713 32.06 124.353 30.78 126.053 30.78C127.773 30.78 129.393 32.12 129.393 34.48ZM134.688 40H136.968V28.98H134.688V40ZM135.848 27.52C136.648 27.52 137.288 26.88 137.288 26.06C137.288 25.24 136.648 24.6 135.848 24.6C135.028 24.6 134.388 25.24 134.388 26.06C134.388 26.88 135.028 27.52 135.848 27.52ZM155.581 40H157.841V33.5C157.841 30.42 155.881 28.8 153.301 28.8C151.701 28.8 150.141 29.64 149.461 30.98C148.701 29.54 147.241 28.8 145.501 28.8C144.181 28.8 142.981 29.34 142.241 30.24V28.98H139.961V40H142.241V33.84C142.241 31.82 143.341 30.78 145.021 30.78C146.681 30.78 147.781 31.82 147.781 33.84V40H150.041V33.84C150.041 31.82 151.141 30.78 152.821 30.78C154.481 30.78 155.581 31.82 155.581 33.84V40ZM159.982 34.44C159.982 37.84 162.282 40.18 165.142 40.18C166.982 40.18 168.302 39.3 169.002 38.36V40H171.302V28.98H169.002V30.58C168.322 29.68 167.042 28.8 165.182 28.8C162.282 28.8 159.982 31.04 159.982 34.44ZM169.002 34.48C169.002 36.86 167.382 38.2 165.662 38.2C163.962 38.2 162.322 36.82 162.322 34.44C162.322 32.06 163.962 30.78 165.662 30.78C167.382 30.78 169.002 32.12 169.002 34.48ZM174.297 40H176.577V28.98H174.297V40ZM175.457 27.52C176.257 27.52 176.897 26.88 176.897 26.06C176.897 25.24 176.257 24.6 175.457 24.6C174.637 24.6 173.997 25.24 173.997 26.06C173.997 26.88 174.637 27.52 175.457 27.52Z" fill="#15181B"/>
</svg>
