<svg width="41" height="44" viewBox="0 0 41 44" fill="none" xmlns="http://www.w3.org/2000/svg">
<path fill-rule="evenodd" clip-rule="evenodd" d="M32.8001 14.6187L32.7609 14.6907H24.6393L24.6001 14.6187L28.6588 7.34649H28.7415L32.8001 14.6187Z" fill="white"/>
<path fill-rule="evenodd" clip-rule="evenodd" d="M36.8608 7.34649L32.8001 14.6187L28.7415 7.34649H36.8608Z" fill="white"/>
<path fill-rule="evenodd" clip-rule="evenodd" d="M40.9608 14.6907L36.9 21.9651L32.8391 14.6907H40.9608Z" fill="white"/>
<path fill-rule="evenodd" clip-rule="evenodd" d="M41 29.3093L40.9608 29.3813H32.8392L32.8 29.3093L36.8608 22.0349H36.9392L41 29.3093Z" fill="white"/>
<path fill-rule="evenodd" clip-rule="evenodd" d="M36.9001 36.6558L36.8609 36.7256H28.7414L28.7001 36.6535L32.7609 29.3814L32.8392 29.3813L36.9001 36.6558Z" fill="white"/>
<path fill-rule="evenodd" clip-rule="evenodd" d="M36.9 21.9651L36.8608 22.0349L28.7393 22.0349L28.7001 21.9651L32.7609 14.6907L32.8391 14.6907L36.9 21.9651Z" fill="white"/>
<path fill-rule="evenodd" clip-rule="evenodd" d="M36.8608 22.0349L32.8 29.3093L28.7393 22.0349L36.8608 22.0349Z" fill="white"/>
<path fill-rule="evenodd" clip-rule="evenodd" d="M20.4999 7.27444L20.4586 7.34646L16.3999 14.6186L16.3608 14.6907H8.23914L12.3 21.9651L12.2608 22.0349L8.19997 29.3093L8.15862 29.3813H0.0391718L0 29.3093L4.06081 22.0349H4.13916L4.09999 21.9651L0.0391718 14.6907H8.1608L8.19997 14.6209L4.13916 7.34646H12.3391L12.3 7.27444L16.3608 0H16.4391L20.4999 7.27444Z" fill="white"/>
<path fill-rule="evenodd" clip-rule="evenodd" d="M20.4999 36.6535L20.4585 36.7256L16.3999 44L12.3391 36.7256L12.2999 36.6535L12.2586 36.7256H4.13912L4.09995 36.6535L8.15862 29.3813L16.4391 29.3814L20.4999 36.6535Z" fill="white"/>
<path fill-rule="evenodd" clip-rule="evenodd" d="M28.6588 7.34649L24.6001 14.6187L20.5393 7.34649H28.6588Z" fill="white"/>
<path fill-rule="evenodd" clip-rule="evenodd" d="M28.7002 7.27444L28.6588 7.34649H20.5393L20.5002 7.27444L24.561 0H24.6393L28.7002 7.27444Z" fill="white"/>
<path fill-rule="evenodd" clip-rule="evenodd" d="M28.7001 36.6535L28.661 36.7256H20.5394L20.5002 36.6535L24.5588 29.3814H24.6415L28.7001 36.6535Z" fill="white"/>
<path fill-rule="evenodd" clip-rule="evenodd" d="M28.661 36.7256L24.6001 44L20.5394 36.7256H28.661Z" fill="white"/>
<path fill-rule="evenodd" clip-rule="evenodd" d="M32.7609 29.3814L28.7001 36.6535L24.6415 29.3814H32.7609Z" fill="white"/>
</svg>
